<svg height="300" viewBox="0 0 1012 300" width="1012" xmlns="http://www.w3.org/2000/svg">
  <style>
    .b {fill: #0d1117}
    .l {fill: #fff}
    @media (prefers-color-scheme: light) {
      .b {fill: #fff}
      .l {fill: #0d1117}
    }
  </style>
  <rect class="b" height="300" width="1012" x="0" y="0" />
  <path d="M407.21 173.32L407.21 141.77L403.37 141.77L403.37 160.52Q403.37 164.91 400.75 167.65Q398.13 170.39 393.88 170.39L393.88 170.39Q389.90 170.39 387.99 168.16Q386.09 165.94 386.09 161.31L386.09 161.31L386.09 141.77L382.25 141.77L382.25 162.28Q382.25 167.90 384.97 170.87Q387.70 173.85 392.86 173.85L392.86 173.85Q396.52 173.85 399.20 172.24Q401.88 170.63 403.17 167.64L403.17 167.64L403.55 167.64L403.55 173.32L407.21 173.32ZM419.34 141.77L419.34 173.32L423.18 173.32L423.18 154.57Q423.18 150.18 425.80 147.44Q428.42 144.70 432.67 144.70L432.67 144.70Q436.65 144.70 438.56 146.92Q440.46 149.15 440.46 153.78L440.46 153.78L440.46 173.32L444.30 173.32L444.30 152.81Q444.30 147.19 441.58 144.21Q438.85 141.24 433.70 141.24L433.70 141.24Q430.03 141.24 427.35 142.85Q424.67 144.46 423.38 147.45L423.38 147.45L423.00 147.45L423.00 141.77L419.34 141.77ZM469.50 133.42L469.50 133.42Q470.99 133.42 472.06 132.35Q473.13 131.28 473.13 129.79L473.13 129.79Q473.13 128.29 472.06 127.22Q470.99 126.15 469.50 126.15L469.50 126.15Q468.00 126.15 466.93 127.22Q465.86 128.29 465.86 129.79L465.86 129.79Q465.86 131.28 466.93 132.35Q468.00 133.42 469.50 133.42ZM456.90 173.32L482.65 173.32L482.65 170.21L471.84 170.21L471.84 141.77L456.84 141.77L456.84 144.87L468.00 144.87L468.00 170.21L456.90 170.21L456.90 173.32Z" fill="#0366d6" />
  <path class="l" d="M501.63 145.02L501.63 173.32L505.47 173.32L505.47 145.02L519.86 145.02L519.86 141.77L505.47 141.77L505.47 138.25Q505.47 132.86 513.06 132.86L513.06 132.86Q514.67 132.86 516.63 132.96Q518.60 133.07 519.86 133.21L519.86 133.21L519.86 129.99Q518.92 129.84 516.83 129.71Q514.73 129.58 513.06 129.58L513.06 129.58Q509.31 129.58 506.76 130.55Q504.21 131.51 502.92 133.42Q501.63 135.32 501.63 138.13L501.63 138.13L501.63 141.77L493.14 141.77L493.14 145.02L501.63 145.02ZM543.68 133.42L543.68 133.42Q545.17 133.42 546.24 132.35Q547.31 131.28 547.31 129.79L547.31 129.79Q547.31 128.29 546.24 127.22Q545.17 126.15 543.68 126.15L543.68 126.15Q542.18 126.15 541.11 127.22Q540.04 128.29 540.04 129.79L540.04 129.79Q540.04 131.28 541.11 132.35Q542.18 133.42 543.68 133.42ZM531.08 173.32L556.83 173.32L556.83 170.21L546.02 170.21L546.02 141.77L531.02 141.77L531.02 144.87L542.18 144.87L542.18 170.21L531.08 170.21L531.08 173.32ZM580.50 144.64L580.50 144.64Q584.69 144.64 587.05 147.50Q589.41 150.35 589.41 155.39L589.41 155.39L571.36 155.39Q571.36 150.32 573.79 147.48Q576.22 144.64 580.50 144.64ZM593.16 165.53L589.35 165.53Q588.62 167.84 586.39 169.13Q584.16 170.42 580.94 170.42L580.94 170.42Q576.55 170.42 573.95 167.50Q571.36 164.59 571.36 159.64L571.36 159.64L571.36 158.55L593.30 158.55L593.30 156.06Q593.30 151.35 591.80 148.04Q590.29 144.73 587.43 142.98Q584.57 141.24 580.50 141.24L580.50 141.24Q576.61 141.24 573.68 142.95Q570.75 144.67 569.13 147.76Q567.52 150.85 567.52 155.01L567.52 155.01L567.52 159.61Q567.52 166.35 571.05 170.10Q574.58 173.85 580.94 173.85L580.94 173.85Q584.13 173.85 586.70 172.82Q589.26 171.80 590.95 169.92Q592.63 168.05 593.16 165.53L593.16 165.53ZM615.86 173.85L615.86 173.85Q612.20 173.85 609.43 172.18Q606.66 170.51 605.11 167.50Q603.56 164.50 603.56 160.58L603.56 160.58L603.56 154.51Q603.56 150.56 605.11 147.57Q606.66 144.58 609.43 142.91Q612.20 141.24 615.86 141.24L615.86 141.24Q619.29 141.24 621.78 142.59Q624.27 143.94 625.38 146.43L625.38 146.43L625.91 146.43L625.91 129.20L629.75 129.20L629.75 173.32L626.09 173.32L626.09 168.78L625.56 168.78Q624.18 171.27 621.71 172.56Q619.23 173.85 615.86 173.85ZM616.71 170.42L616.71 170.42Q620.93 170.42 623.47 167.49Q626 164.56 626 159.67L626 159.67L626 155.45Q626 150.56 623.47 147.63Q620.93 144.70 616.71 144.70L616.71 144.70Q612.46 144.70 609.93 147.63Q607.40 150.56 607.40 155.45L607.40 155.45L607.40 159.67Q607.40 164.53 609.93 167.48Q612.46 170.42 616.71 170.42Z" />
</svg>
