<svg xmlns="http://www.w3.org/2000/svg" width="250" height="210">
  <path d="M39.88 81.61L36.87 81.61L36.87 108.08C36.87 116.16 31.88 123.94 22.39 123.94C14.78 123.94 9.97 119.04 9.97 111.18L9.97 81.61L6.96 81.61L6.96 111.69C6.96 121.88 13.62 126.77 22.04 126.77C30.68 126.77 35.19 121.62 36.70 117.41L36.87 117.41L36.87 126L39.88 126ZM54.70 126L57.75 126L57.75 98.97C57.75 91.20 62.52 83.68 72.06 83.68C80.14 83.68 84.69 89.52 84.69 97.21L84.69 126L87.70 126L87.70 96.87C87.70 86.55 81.21 80.84 72.40 80.84C63.94 80.84 59.34 85.78 57.92 90.21L57.75 90.21L57.75 81.61L54.70 81.61ZM102.31 126L105.32 126L105.32 81.61L102.31 81.61ZM100.98 69.80C100.98 71.39 102.22 72.63 103.81 72.63C105.45 72.63 106.69 71.39 106.69 69.80C106.69 68.21 105.45 66.92 103.81 66.92C102.22 66.92 100.98 68.21 100.98 69.80ZM122.38" fill="#000"/>
  <path d="M122.38 126L125.38 126L125.38 84.28L136.73 84.28L136.73 81.61L125.38 81.61L125.38 75.64C125.38 69.45 128.09 67.39 133.55 67.39C134.84 67.39 136.30 67.52 136.90 67.61L136.90 64.98C136.38 64.86 134.79 64.68 133.42 64.68C126.37 64.68 122.38 67.52 122.38 75.60L122.38 81.61L115.16 81.61L115.16 84.28L122.38 84.28ZM147.00 126L150.00 126L150.00 81.61L147.00 81.61ZM145.66 69.80C145.66 71.39 146.91 72.63 148.50 72.63C150.13 72.63 151.38 71.39 151.38 69.80C151.38 68.21 150.13 66.92 148.50 66.92C146.91 66.92 145.66 68.21 145.66 69.80ZM180.64 126.77C191.17 126.77 196.11 120.07 196.71 114.87L193.66 114.87C193.10 118.95 189.06 123.98 180.68 123.98C171.75 123.98 166.03 117.75 166.03 106.32L166.03 103.96L197.36 103.96L197.36 101.81C197.36 88.06 190.44 80.84 180.17 80.84C169.86 80.84 163.02 88.06 163.02 101.72L163.02 106.41C163.02 119.38 169.68 126.77 180.64 126.77ZM166.03 101.25L166.03 101.08C166.03 90.08 171.66 83.63 180.17 83.63C188.68 83.63 194.30 90.08 194.30 101.08L194.30 101.25ZM224.90 80.84C215.92 80.84 207.93 87.24 207.93 99.79L207.93 107.91C207.93 119.47 214.97 126.77 224.81 126.77C234.74 126.77 238.65 119.81 239.55 117.06L239.72 117.06L239.72 126L242.69 126L242.69 64.34L239.68 64.34L239.68 90.38L239.51 90.38C238.26 86.81 234.09 80.84 224.90 80.84ZM224.98 83.68C233.96 83.68 239.68 90.89 239.68 100.30L239.68 107.52C239.68 116.12 234.48 123.98 224.98 123.98C217.25 123.98 210.98 118.09 210.98 107.44L210.98 100.39C210.98 88.83 217.81 83.68 224.98 83.68Z" fill="#007ec6"/>
</svg>
